<svg xmlns="http://www.w3.org/2000/svg" xmlns:xlink="http://www.w3.org/1999/xlink" width="46" height="46" viewBox="0 0 46 46">
  <defs>
    <clipPath id="clip-path">
      <rect id="Rectangle_14" data-name="Rectangle 14" width="34" height="38" transform="translate(96 158)"/>
    </clipPath>
    <clipPath id="clip-path-2">
      <rect id="Rectangle_13" data-name="Rectangle 13" width="33" height="36" transform="translate(97 159)"/>
    </clipPath>
  </defs>
  <g id="Group_35" data-name="Group 35" transform="translate(-420 -1282)">
    <circle id="Ellipse_1" data-name="Ellipse 1" cx="23" cy="23" r="23" transform="translate(420 1282)" fill="#4a1486"/>
    <g id="Bulb" transform="translate(426 1286)">
      <g id="Bulb-2" data-name="Bulb" transform="translate(-96 -158)" clip-path="url(#clip-path)">
        <g id="Group_34" data-name="Group 34" clip-path="url(#clip-path-2)">
          <g id="Group_33" data-name="Group 33" clip-path="url(#clip-path-2)">
            <g id="Group_32" data-name="Group 32" clip-path="url(#clip-path-2)">
              <path id="Path_23" data-name="Path 23" d="M16.476,5.443a10.921,10.921,0,0,1,11,10.844c0,.027,0,.053,0,.08a10.874,10.874,0,0,1-2.419,6.664c-.437.579-1.772,2.143-1.886,2.285a4.387,4.387,0,0,0-1.178,3.027V32.7a3.258,3.258,0,0,1-1.154,2.293,7.259,7.259,0,0,1-.67.586q-.121.094-.223.166c-.043.031-.078.054-.1.069a1.138,1.138,0,0,1-.627.188H13.736a1.141,1.141,0,0,1-.628-.187l-.1-.069q-.1-.073-.223-.166a7.26,7.26,0,0,1-.67-.586A3.263,3.263,0,0,1,10.961,32.7V28.343a4.4,4.4,0,0,0-1.178-3.027c-.112-.142-1.447-1.706-1.886-2.285a10.874,10.874,0,0,1-2.419-6.664A10.92,10.92,0,0,1,16.394,5.443Zm3.253,24.569H13.223V32.7a1.611,1.611,0,0,0,.49.7,4.412,4.412,0,0,0,.4.352H18.84a4.412,4.412,0,0,0,.4-.352,1.611,1.611,0,0,0,.49-.7ZM16.476,7.693a8.665,8.665,0,0,0-8.734,8.594c0,.027,0,.053,0,.08A8.663,8.663,0,0,0,9.709,21.68c.388.514,1.7,2.049,1.852,2.243A6.8,6.8,0,0,1,13.2,27.762h6.56a6.842,6.842,0,0,1,1.636-3.839c.154-.194,1.463-1.73,1.852-2.243a8.663,8.663,0,0,0,1.966-5.313,8.663,8.663,0,0,0-8.653-8.674Z" transform="translate(97.024 159)" fill="#fff"/>
              <path id="Path_24" data-name="Path 24" d="M28.371,22.046a1.192,1.192,0,0,1,.536.151l1.424.817a1.122,1.122,0,0,1,.414,1.537,1.135,1.135,0,0,1-1.546.412l-1.424-.817a1.124,1.124,0,0,1,.595-2.1Z" transform="translate(97.024 159)" fill="#fff"/>
              <path id="Path_25" data-name="Path 25" d="M4.581,22.046a1.174,1.174,0,0,1,1.01.563,1.122,1.122,0,0,1-.415,1.537l-1.424.817a1.135,1.135,0,0,1-1.546-.412,1.122,1.122,0,0,1,.414-1.537L4.045,22.2a1.223,1.223,0,0,1,.536-.151Z" transform="translate(97.024 159)" fill="#fff"/>
              <path id="Path_26" data-name="Path 26" d="M31.821,15.242a1.125,1.125,0,1,1,0,2.25H30.177a1.125,1.125,0,1,1,0-2.25Z" transform="translate(97.024 159)" fill="#fff"/>
              <path id="Path_27" data-name="Path 27" d="M2.776,15.242a1.125,1.125,0,1,1,0,2.25H1.131a1.125,1.125,0,1,1,0-2.25Z" transform="translate(97.024 159)" fill="#fff"/>
              <path id="Path_28" data-name="Path 28" d="M29.736,7.621a1.174,1.174,0,0,1,1.01.563,1.121,1.121,0,0,1-.415,1.537l-1.424.818a1.136,1.136,0,0,1-1.546-.413,1.122,1.122,0,0,1,.415-1.538L29.2,7.772a1.223,1.223,0,0,1,.536-.151Z" transform="translate(97.024 159)" fill="#fff"/>
              <path id="Path_29" data-name="Path 29" d="M3.217,7.621a1.194,1.194,0,0,1,.536.151l1.424.816a1.122,1.122,0,0,1,.415,1.538,1.136,1.136,0,0,1-1.546.413L2.621,9.72a1.124,1.124,0,0,1,.595-2.1Z" transform="translate(97.024 159)" fill="#fff"/>
              <path id="Path_30" data-name="Path 30" d="M8.773,2.043a1.17,1.17,0,0,1,1.011.563l.821,1.414a1.121,1.121,0,0,1-.386,1.544A1.135,1.135,0,0,1,8.667,5.18l-.021-.036L7.826,3.73a1.122,1.122,0,0,1,.413-1.537h0a1.206,1.206,0,0,1,.536-.15Z" transform="translate(97.024 159)" fill="#fff"/>
              <path id="Path_31" data-name="Path 31" d="M24.179,2.043a1.191,1.191,0,0,1,.536.15,1.122,1.122,0,0,1,.414,1.537h0l-.822,1.414a1.135,1.135,0,0,1-1.538.44,1.122,1.122,0,0,1-.442-1.529l.021-.036.821-1.414A1.117,1.117,0,0,1,24.179,2.043Z" transform="translate(97.024 159)" fill="#fff"/>
              <path id="Path_32" data-name="Path 32" d="M16.476,0a1.128,1.128,0,0,1,1.131,1.125V2.758a1.131,1.131,0,0,1-2.263,0V1.125A1.128,1.128,0,0,1,16.476,0Z" transform="translate(97.024 159)" fill="#fff"/>
            </g>
          </g>
        </g>
      </g>
    </g>
  </g>
</svg>
