<svg id="Component_2_2" data-name="Component 2 – 2" xmlns="http://www.w3.org/2000/svg" width="126.721" height="55.185" viewBox="0 0 126.721 55.185">
  <g id="Layer_1" data-name="Layer 1">
    <path id="Path_15" data-name="Path 15" d="M181.946,4.588h7.544l-3.773,7.636Z" transform="translate(-62.769 -4.588)" fill="#409d27"/>
    <path id="Path_16" data-name="Path 16" d="M4.46,82.175H12L8.229,74.539Z" transform="translate(-4.46 -26.99)" fill="#d90001"/>
  </g>
  <g id="text" transform="translate(1.038 10.58)">
    <path id="Path_17" data-name="Path 17" d="M6.005,20.152h6.173V34.435h.093a9.133,9.133,0,0,1,7.379-3.806c7.333,0,10.257,6.625,10.257,11.793,0,6.719-4.178,12.827-10.768,12.827a8.968,8.968,0,0,1-6.962-3.478v2.913H6.005Zm6.173,23.07c0,4.276,1.671,8.269,5.849,8.269,3.945,0,5.338-4.887,5.338-9.021,0-4.041-1.764-8.081-5.245-8.081C14.22,34.389,12.178,37.819,12.178,43.222Z" transform="translate(-6.005 -20.152)" fill="#ff8001"/>
    <path id="Path_18" data-name="Path 18" d="M93.867,55.461H87.322V29.807h-.093c-3.574,9.162-7.286,17.431-10.953,25.653H72.749c-3.481-8.222-7.008-16.491-10.4-25.653H62.26V55.461H57.015V22.572h8.076c3.342,8.081,8.726,20.954,9.979,25.183h.093c1.532-4.416,7.379-17.1,11.093-25.183h7.612Z" transform="translate(-22.763 -20.927)" fill="#4a1486"/>
    <path id="Path_19" data-name="Path 19" d="M117.633,47.594c0-7.611,5.941-12.028,12.16-12.028,6.266,0,12.206,4.417,12.206,12.028,0,7.283-4.919,12.592-12.206,12.592C122.553,60.186,117.633,54.877,117.633,47.594Zm17.822,0c0-3.9-1.346-8.551-5.663-8.551-4.224,0-5.616,4.651-5.616,8.551,0,4.135,1.207,9.115,5.616,9.115C134.295,56.709,135.455,51.729,135.455,47.594Z" transform="translate(-42.678 -25.088)" fill="#4a1486"/>
    <path id="Path_20" data-name="Path 20" d="M174.462,51.3h-.093A9.392,9.392,0,0,1,166.8,55.25c-6.079,0-10.118-5.075-10.118-12.592,0-6.108,4.363-12.028,10.582-12.028a8.435,8.435,0,0,1,7.1,3.289h.093V20.152h6.172V54.686h-6.172Zm-11.232-8.786c0,4.557,1.764,8.974,5.338,8.974,4.131,0,5.895-4.511,5.895-9.209,0-4.087-1.9-7.893-5.616-7.893C164.853,34.389,163.229,37.959,163.229,42.517Z" transform="translate(-55.508 -20.152)" fill="#4a1486"/>
  </g>
</svg>
