<svg id="Component_2_1" data-name="Component 2 – 1" xmlns="http://www.w3.org/2000/svg" xmlns:xlink="http://www.w3.org/1999/xlink" width="427.019" height="380.55" viewBox="0 0 427.019 380.55">
  <defs>
    <clipPath id="clip-path">
      <path id="Path_7" data-name="Path 7" d="M0,321.071H427.019V-59.479H0Z" transform="translate(0 59.479)" fill="none"/>
    </clipPath>
  </defs>
  <g id="Group_9" data-name="Group 9" clip-path="url(#clip-path)">
    <g id="Group_6" data-name="Group 6" transform="translate(22.906 2.351)">
      <path id="Path_4" data-name="Path 4" d="M207.519,317.6a17.4,17.4,0,0,1-4.944-7.031c-1.7-4.555-4.324-10.966-8.258-14.677s-14.136-9.655-18.46-13.513S162.808,270.1,164.5,256.655s8.341-18.535,10.426-20.083,4.631-2.854,5.251-2.854,1.625,1.081.384,1.7-4.247,2.316-14.9,2.239-22.931-3.244-27.722-9.885-8.955-12.284-2.008-20.314,32.436-14.991,32.436-14.991,30.5-6.411,35.212-7.255,24.249-3.634,31.125-3.634,14.283.621,22.01,3.634,22.547,10.659,24.556,11.664,11.507,5.406,16.061,6.564,11.123,3.321,19,1.081,13.049-5.72,13.976-9.731-1.465-4.248-2.7-4.172a31.985,31.985,0,0,0-12.2,2.623c-6.563,2.706-22.317,9.424-30.658,9.04S263.66,196.1,257.1,192.854s-20.545-6.488-24.709-5.873a23.454,23.454,0,0,0-11.744,5.33,14.869,14.869,0,0,0-5.168,13.673,19.1,19.1,0,0,0,11.117,14.6c5.8,2.553,24.326,7.031,43.016,5.8s19.151-1.395,19.771-.7,1.388,2.393-.62,3.167-7.8,3.244-13.9-.23-14.98-9.731-23.091-11.433-26.181-3.167-26.181-3.167l-28.106-3.09s-11.123-.774-14.136-2.546-7.567-5.022-6.793-8.81,5.015-1.7,7.72.39,9.115,10.659,12.044,15.368A111.241,111.241,0,0,1,209.6,245.069a176.932,176.932,0,0,0,11.277,30.359c1.849,3.474,4.708,9.5,6.332,10.2s4.938,1.158,4.938-3.09S219.41,252.1,218.642,249.317s-2.859-4.4,1-9.111,9.729-1.932,12.818-.621,26.1,13.289,34.982,14.293a41.308,41.308,0,0,0,29.11-7.262c10.2-7.031,27.262-18.465,29.27-20.237s9.268-8.81,10.58-11.824,2.552-8.881,3.627-12.2,2.008-6.564,4.714-9.655,5.872-5.406,7.26-9.194,2.936-8.65.23-12.822-9.882-8.113-17.219-9.424-25.33-2.63-37.688.461a134.458,134.458,0,0,0-23.628,8.657l-22.938,10.736-21.236,7.876s-15.294,4.792-21.236,6.334-42.242,10.429-42.242,10.429-28.65,6.641-37.611,6.8-25.176,1.081-35.136-3.25S76,201.965,75.7,200.039s1.158-3.481,4.017-3.4,4.785.851,5.021,2.163,1.081,6.494-6.409,5.643-13.669-1.081-19.695-6.027-12.9-11.664-14.75-18.151-2.546-12.975-2.162-16.219a41.124,41.124,0,0,1,2.706-10.275c1.081-2.316,3.857-6.955,6.409-8.65s8.335-3.481,10.036-4.485,2.782-1,2.629-4.012-1.318-4.485-.16-6.411a13.25,13.25,0,0,1,7.65-5.72c4.011-1.158,13.125-3.4,14.9-10.506s1-11.043,0-12.975-2.859-3.864-4.247-3.634-3.633,2.4-2.706,4.869,5.718,5.95,10.97,6.718,17.142,1,25.944-2.47,25.8-9.885,28.419-11.043,17.558-2.086,21.882-2.5,15.652-.877,27.287-9.264,21.415-15.554,22.394-16.225,2.571-1.644,3.55-1.644,2.373.461,2.316,1.184a5.9,5.9,0,0,1-.921,3.039c-.723.921-1.343,2-2.168,1.644a2.43,2.43,0,0,1-1.235-2.47,52.645,52.645,0,0,1,1.5-6.181c.665-1.7,4.938-8.5,8.546-10.915a22.346,22.346,0,0,1,14.206-4.069c6.128.307,12.46,3.5,14.827,7.313s6.077,7.671,5.77,15.24-2.782,12.975-5.718,13.186-7.254.461-7.823-2.527-.723-4.53.723-7.159,6.691-12.2,12.665-16.942,14.878-10.454,22.138-10.4,15.806,2.886,19.049,8.554a28.849,28.849,0,0,1,3.755,9.527c.365,1.184,1.235,4.581,4.068,4.683s3.448-.358,6.691-3.193,8.961-9.015,9.524-12.1,1.6-8.861-.409-12-5.559-4.427-7.209-3.4-3.448,2.06-3.038,5.15,1.753,7.364,3.71,9.008,6.588,5.1,7.618,5.72,5.2,3.449,5.507,5.2.62,5.15-3.243,7.051-11.993,3.66-17.194,4.843-8.085,2.111-9.268,2.732-2.936,2-2.367,4.325,1.439,3.09,4.58,3.346,5.354-.051,7.311,0,7.778,1.286,10.656,3.653a20.4,20.4,0,0,1,4.586,5.253c.307.518,1.849,2.578,2.981,2.834s3.089,1.593,3.915-.307,1.183-4.223,2.367-7.78,1.906-7.978,5.251-10.346,4.944-3.3,8.494-2.783a13.709,13.709,0,0,1,9.473,6.59A21.408,21.408,0,0,1,363.745,94.7c-.154,2.47-.927,10.762-4.273,15.963s-10.452,12.208-15.6,14.216-9.006,2.163-11.43,3.244-5.456,3.346-5.251,5.969,1.65,4.069,4.944,3.864,12.153-2.63,14.155-5.1,5.3-7.313,2.271-12.719-15.754-4.581-20.955-5.713-15.5-4.274-22.138-9.578-15.294-15.042-15.294-15.042-.665-1.542.518-2.163a1.56,1.56,0,0,1,2.264.672c.358.614,4.017,3.916.569,11.894s-12,12.975-17,14.421-6.9,2.726-8.494,1.491-2.367-1.958-1.49-2.726.979-.774.979-.774l-5.872,1.907s-16.784,3.96-19.151,4.376-12.818,1.8-15.908,2.009-8.546.563-8.546.563-.927.314-.409-1.8,1.8-4.172,3.806-3.864,2.264,2.265-.614,4.274-4.017,3.6-9.064,4.018-6.588,1.644-17.609-1.132-11.993-3.608-19.56-3.711-12.051,1.6-14.264,6.385,1.906,9.117,5.4,7.057,1.957-4.741,1.343-6.027-6.748-2.988-10.349-3.449-15.5-1.235-23.321.461-14.725,3.864-15.908,4.946-3.141,4.223-1.7,6.436,5.821,4.741,8.8,2.265,2.987-7.051.723-8.8-6.332-1.184-12.2.979-11.072,2.988-13.49,2.418-4.842-.1-5.559-1.7-.518-3.09.768-3.3a4.943,4.943,0,0,1,4.324,2.009,5.648,5.648,0,0,1-.307,7.006,28.9,28.9,0,0,1-8.034,7.057c-2.469,1.337-8.079,3.551-8.955,3.909s-11.686,4.018-11.891,3.967-2.936.569-3.038-2.418,3.5-3.193,6.639-3.66,13.081-1.7,20.545-.819,17.705,1.8,26.2,3.295,17.251,2.674,21.78,2.623,7-.2,7-.2a3.78,3.78,0,0,0-2.731-2.988c-2.571-.928-3.5-2.265-6.844-.825a22.3,22.3,0,0,0-9.064,6.494c-3.294,3.7-13.592,11.74-17.456,13.18A82.985,82.985,0,0,1,99.33,168.7c-1.753.154-3.659-.877-7.209.051s-5.718,1.8-6.9,3.916-1.8,5.406,1.548,7.518,11.737,5.56,15.032-.051,3.089-6.59,2.367-8.548-2.623-3.967-4.58-3.346a3.343,3.343,0,0,0-1.8,4.888c1.132,1.855,3.038,3.557,11.328,3.864s21.773-1.958,32.487-4.172,18.121-4.018,28.413-3.193,18.281,1.907,22.963,0,10.554-5.509,10.656-12.31-1.183-7.978-3.908-9.111-4.068-1.292-4.689-.928-2.213,1.747-.461,2.674a7.773,7.773,0,0,0,4.119,1.081,75.691,75.691,0,0,1,7.772,1.7s8.75,2.316,15.294,3.653,14.827,3.244,23.424.365,12.665-5.873,15.7-11.792,2.93-11.177,1.746-14.216-3.857-5.816-5.917-4.895a7.673,7.673,0,0,0-4.068,7.057c.307,3.039.307,10.352,9.057,16.066s20.852,8.343,29.711,9.738,20.334,3.346,31.3,4.223,19.1,1.747,24.556-1.241,8.757-7.051,10.919-15.861,4.426-21.062,4.375-31.67-.723-19-1.753-24.255-1.542-7.927-3.243-14.415-5.354-16.174-8.7-21.114-8.341-9.168-11.021-8.5-4.375,2.265-4.887,3.7-1.5,3.711.307,4.018,2.936-.774,3.192-3.295.62-4.223,0-6.852-1.753-9.264-6.9-15.189-8.91-10.864-12.2-10.915-5.149.461-6.179,1.849-2.418,3.141-2.111,5.362.154,3.96,1.394,4.632,2.827,1.44,3.7-.461,1.132-2.322.154-4.639-.927-3.864-5.4-7.722-8.7-7.211-11.226-7.108-5.968.569-6.691,4.018-.461,6.846-.358,10.454a23.317,23.317,0,0,1-.518,7.1c-.461,1.753-3.7,7.627-9.211,8.708s-10.349,2.009-15.55-2.732-7.311-14.108-5.4-19.463,5.814-10.1,8.648-11.74,8.8-4.069,9.985-4.172,5.4-1.081,7.362-.518a2.474,2.474,0,0,1,1.7,2.886c0,.512-1.855,4.325-3.761,4.632s-4.785,1.03-8.028-2.988-10.094-14.364-10.5-15.035-7.983-10.813-8.648-11.638-7.158-6.795-10.145-7.825-7.772-1.286-9.422-.416-6.179,4.223-5.149,9.168,5.251,9.987,7.72,11.28,5.149,2.367,5.923,1.491.927-2.111-1.235-2.674a39.554,39.554,0,0,0-11.123-.723c-3.243.409-12.454,4.325-15.7,9.68s-2.373,8.861.358,10.557,15.083,2.367,22.394.825,15.754-2.834,20.75-6.9,8.027-6.641,7.26-12.457-8.6-10.973-9.787-11.849-10.759-5.56-13.695-7.262-7.72-4.063-9.371-5.042-14.667-7.882-16.675-8.605-8.085-2.163-10.97-1.593-6.281,1.184-7.362,3.813a4.384,4.384,0,0,0,1.855,5.662c1.6.877,4.893,1.958,7.772,5.15s3.249,2.783,5.309,7.774,5.558,13.186,3.959,22.246a50.32,50.32,0,0,1-4.733,14.472c-.262.825-7.88,14.159-14.929,19.879A150.926,150.926,0,0,0,185.976,48.4a2.955,2.955,0,0,1-3.863.409c-2.213-1.44-4.222-7.671-4.068-10.71s1.03-4.99,2.68-5.253,3.806.672,4.062,1.958.825,7.882-1.8,11.177-6.128,5.56-9.422,8.241-7.26,6.334-8.648,12.1-1.65,10.506-4.74,15.138-8.028,10.2-11.482,11.849-9.057,3.346-12.249,3.295S129.6,96.352,128.619,93s-2.367-6.9,1.03-9.476,9.371-4.632,10.554-8.957.927-6.283.569-7.211-3.345-5.925-5-10.557-2.782-13.129-1.388-18.49,5.2-13.078,12.147-15.547,9.524-1.7,13.285-1.548,5.763.416,7.26-1.491,1.746-5.406,1.132-8.753S166.46,1.6,166.358.413s-1.49-7.729,1.593-13.34,6.492-9.987,10.612-12.1,15.083-5.925,19.458-6.392,6.486-.87,6.486-.87-2.987-6.8-5.4-9.424-6.9-7.006-12.972-9.066S172.793-55.1,164.97-53.35s-9.064,5.253-6.953,9.008,7.158,4.325,7.465,4.223,1.03-.1.979-.928-.672-1.235-1.542-1.337-6.025.051-8.91,1.8-9.109,5.765-12.972,11.12-7.158,12.156-7.932,14.78-2.776,11.587-2.418,16.226.569,6.078,1.081,6.539,2.008.614,2.316-.307.313-1.395-.256-1.8-.409-1.548-5.3.1S119.92,10.4,117.086,16.786s-5.04,17.1-5.559,21.683-.979,9.834-3.243,14.933-4.631,9.834-9.115,12.822S85.322,74.618,82.443,79.615s-2.834,10.039-1.03,13.538,6.793,7.78,10.554,9.22,14.258,4.587,18.479,2.111,4.944-2.265,5-5.969-.825-4.895-2.475-4.946-3.857.1-3.959,1.593.409,2.783-.723,3.813-2.315,2.674-4.017,1.388-4.375-4.786-4.631-8.292a30.675,30.675,0,0,1,.051-8.132c.461-4.325,2.418-23.123,2.725-25.029s2.373-15.189,3.966-21.267,4.893-21.939,9.473-27.652,11.123-7.678,14.571-13.7,5.456-18.126,5.047-20.858-1.235-5-4.068-5.56-20.181-3.967-21.729-4.427a43.66,43.66,0,0,0-5.814-1.241c-.876-.051-1.8-.665-3.556.313s-3.192,4.223-5.143,4.632-2.987.154-4.119-1.958,2.06-5.048,6.9-7.62,25.848-13.494,34.138-16.117,11.27-2.885,15.908-1.344,7.772,9.891,8.75,12.054,1.49,5.867,1.337,9.936-1.7,13.186-14.1,14.472-25.381-1.132-25.381-1.132-19.669-2.47-28.112-2.009-30.632,2.988-41.749,9.476S27.4-.566,23.232,1.392,16.285,4.943,12.626,5.615s-6.844,1.7-7.72,2.879S2.744,10.5,3.153,12.665s.62,2.476,2.008,3.66,8.187,3.807,9.991,4.018,7.823,2.47,11.686-.16,6.844-7.671,8.9-10.915S45.837-1.289,54.433-3.5A121.18,121.18,0,0,1,71.678-6.746C74.716-7.1,90.061-8.192,93.714-8.7s10.605-1.855,14.162-3.66,3.959-2.521,3.908-3.346-.665-1.7-2.06-.768-2.878,1.8-3.55,3.756-2.731,6.641-2.731,7.831.262,4.376.313,5.042-.1,3.141-.672,3.711-.563,3.916-4.785,2.214S89.908,1.027,87.688.362,82.6-1.084,80.332-.207,77.192.72,76.264,2.576s-1.753,7.159-5.4,7.927-5.411,1.081-7-.154-3.4-2.886-1.906-5.2,3.141-2.316,5.3-1.542,6.179,3.807,7.362,7.722,1.7,10.506,2.782,13.647,1.49,6.641,4.119,8.445a29.616,29.616,0,0,1,4.375,3.193,3.563,3.563,0,0,1,1.132,4.172c-.62,1.8-1.65,2.674-4.068,3.449s-7.925,3.09-9.78,3.609A24.189,24.189,0,0,0,63.286,55.1a22.184,22.184,0,0,0-3.857,8.81c-.365,1.337-1.6,6.129-5,7.825s-6.639,1.081-9.882,1.337-7.829.979-10.094,3.141-4.17,3.711-5.1,6.648-1.7,5.355.825,8.855,6.537,5.56,11.84,8.087,13.49,6.334,17.661,10.454,6.435,6.692,7.055,7.467,1.081,1.855,2.674,2.111,4.477.409,5.923-2.06,3.4-3.244,2.111-7.108-1.183-5.662-5.1-8.036-12.358-7.518-12.358-7.518-14.053-7.825-21.773-10.09S25.809,82.187,23.7,82.084s-11.123.1-13.183,1.184a5.648,5.648,0,0,0-3.448,4.325c-.409,2.111-.979,4.895.979,6.7s3.608,3.858,4.068,5.458a10.383,10.383,0,0,1-.461,5.611,21.893,21.893,0,0,0-1.6,4.843,37.576,37.576,0,0,0-.307,5.15c.154,1.593.819,7.876.87,8.132s.262,2.009.262,2.009-.313,1.907-1.65.621L5.68,110.409.013,85.072s-1.7-4.376-4.784-4.741A41.234,41.234,0,0,0-15.735,81c-1.548.512-7.106,2.572-8.187,3.09A49.63,49.63,0,0,0-29.59,88.47c-.512.512-2.674,1.855-2.725,3.295s-.774,3.141,1.132,4.172,5.763,1.855,7.772-.512,3.812-5.048,4.068-6.852.569-10.659,1.132-13.231.2-5.925,3.089-9.635,7.829-6.539,9.94-8.6S.275,51.5,1.151,49.128s2.111-7.62,2.827-9.731,1.5-4.331,2.008-5.669a3.944,3.944,0,0,0,0-3.5,2.886,2.886,0,0,0-3.4-1.7c-2.06.313-3.6,1.753-3.243,3.711s1.337,3.193,3.141,3.4A61.89,61.89,0,0,1,11.136,37.8c4.017,1.184,10.554,2.834,15.6,5.976s9.006,6.385,10.759,7,4.068,1.344,6.025.877,5.2-2.06,6.435-4.274,1.7-7.518-.467-12.771a27.185,27.185,0,0,0-8.8-11.075,62.407,62.407,0,0,0-8.7-5.509,67.44,67.44,0,0,0-13.439-4.735A33.655,33.655,0,0,0,9.7,13.235c-2.264.409-6.953,1.958-8.706,3.756s-4.733,6.488-6.537,14.524-7.669,14.165-13.746,16.219-13.279,1.132-15.959-1.644-5.712-8.19.2-14.677S-7.657,4.943,2.175-1.7A329.2,329.2,0,0,1,35.18-20.963C42.645-24.514,60.305-31.622,71.832-34.3S95.364-38.57,95.364-38.57" transform="translate(38.455 58.837)" fill="none" stroke="#fff" stroke-linecap="round" stroke-linejoin="round" stroke-width="2.75"/>
    </g>
    <g id="Group_7" data-name="Group 7" transform="translate(315.37 36.597)">
      <path id="Path_5" data-name="Path 5" d="M0,0S7.567,2.393,9.729,3.013,19.381,6.1,23.475,9.348s8.648,7.025,10.97,12.591,1.772,9.348,3.32,9.962,3.243,0,5.1-.384a15.015,15.015,0,0,1,9.422.537A14.748,14.748,0,0,1,61.546,42.1" fill="none" stroke="#fff" stroke-linecap="round" stroke-linejoin="round" stroke-width="2.75"/>
    </g>
    <g id="Group_8" data-name="Group 8" transform="translate(3.323 109.952)">
      <path id="Path_6" data-name="Path 6" d="M2.981,66.563s1.235-2.316,4.944-2.63,4.324-.461,5.251.16,1.7,1.235,1.235,2.47.154,2.163-1.548,2.316a8.311,8.311,0,0,1-3.4,0c-1.855-.307-2.623-.461-3.55-1.7A45.089,45.089,0,0,1,1.9,61.771c-1.081-2-4.017-9.885-1.388-21.165S7,13.574,9.934,5.078,15.876-9.6,17.424-10.988s2.7-1.7,3.7-.928a5.743,5.743,0,0,1,1.625,2.7c.23.621,2.392,8.036,2.776,9.04s2.4,6.948,4.324,10.115a121.489,121.489,0,0,1,6.1,12.591c.851,2.163,2.085,8.5,1.388,12.131s-2.316,10.582-10.19,11.2-13.209-5.637-14.213-8.8a57.213,57.213,0,0,1-1.618-7.569,1.259,1.259,0,0,1,1.311-1.548c1.625-.077,1.855.774,1.932,1.625a97.952,97.952,0,0,1,1.311,13.98c0,6.564,2.936,12.982,7.8,15.375s12.505,5.483,18.147,8.8S53.02,78.924,54.875,81.24s8.494,9.578,18.537,10.275,18.921-2.009,21.62-2.086,5.949-.928,8.808,2.163,3.166,7.179,2.162,8.957-3.556,9.5-13.439,9.815-23.475-1.548-24.633-1.625-12.358-.928-17.84-1.932-8.731-1.932-9.115-4.095-.7-4.939.384-5.79,1.855-.313,3.089-.544,3.48-.691,3.94-2.009.774-4.095-2.546-4.248-7.337.544-12.511-.077-17.3-2.316-25.407-9.111S.045,71.432,2.981,66.563Z" transform="translate(0.552 12.331)" fill="none" stroke="#fff" stroke-linecap="round" stroke-linejoin="round" stroke-width="2.75"/>
    </g>
  </g>
</svg>
